<?xml version="1.0" standalone="no"?>
<!DOCTYPE svg PUBLIC "-//W3C//DTD SVG 20010904//EN"
 "http://www.w3.org/TR/2001/REC-SVG-20010904/DTD/svg10.dtd">
<svg version="1.0" xmlns="http://www.w3.org/2000/svg"
 width="300.000000pt" height="300.000000pt" viewBox="0 0 300.000000 300.000000"
 preserveAspectRatio="xMidYMid meet">
<metadata>
Created by potrace 1.10, written by Peter Selinger 2001-2011
</metadata>
<g transform="translate(0.000000,300.000000) scale(0.050000,-0.050000)"
fill="#000000" stroke="none">
<path d="M915 5799 c-124 -30 -225 -92 -310 -188 -44 -50 -96 -91 -116 -91
-72 0 -208 -100 -253 -186 -139 -269 74 -587 368 -548 59 8 108 -3 192 -41 83
-38 147 -52 234 -52 87 0 151 14 234 52 86 39 133 49 195 41 246 -33 465 214
402 454 -39 149 -174 280 -288 280 -16 0 -72 44 -123 98 -143 151 -359 224
-535 181z m293 -224 c44 -25 107 -85 142 -135 41 -58 80 -92 112 -96 152 -17
218 -71 218 -179 0 -146 -105 -219 -256 -179 -66 17 -94 17 -120 -1 -98 -70
-190 -105 -274 -105 -84 0 -176 35 -274 105 -26 18 -54 18 -120 1 -67 -18 -99
-17 -149 4 -179 75 -127 321 73 348 74 10 96 25 150 102 83 119 191 179 320
179 67 0 126 -15 178 -44z"/>
<path d="M2744 5596 c-58 -58 -18 -146 74 -159 48 -7 60 -21 99 -122 17 -43
35 -55 83 -55 48 0 66 12 83 55 39 101 51 115 99 122 92 13 132 101 74 159
-34 34 -159 30 -212 -7 -40 -28 -48 -28 -88 0 -53 37 -178 41 -212 7z"/>
<path d="M4700 5321 c-143 -43 -360 -213 -360 -281 0 -10 -28 -33 -62 -51 -35
-18 -102 -69 -151 -114 l-88 -81 -55 52 c-186 179 -574 143 -721 -67 -29 -41
-83 -91 -120 -111 -145 -79 -225 -259 -185 -417 19 -78 18 -102 -11 -156 -150
-290 106 -622 477 -620 l136 1 0 -189 0 -188 -214 5 -215 6 -302 416 c-167
229 -323 430 -348 447 -109 77 -280 71 -386 -13 l-50 -39 -147 193 c-196 255
-225 276 -398 276 -189 0 -182 7 -705 -681 -369 -486 -465 -602 -514 -614 -94
-25 -106 -68 -83 -312 227 -2435 3155 -3474 4836 -1716 463 484 720 1075 776
1787 19 250 27 246 -460 246 l-390 0 0 201 0 201 75 -15 c528 -103 952 367
707 784 -32 54 -33 68 -7 140 69 195 -20 428 -207 539 -56 33 -123 94 -150
137 -122 194 -444 306 -678 234z m322 -192 c99 -35 204 -127 238 -210 16 -37
59 -74 130 -108 178 -87 228 -230 139 -398 -51 -94 -51 -97 -15 -146 214 -298
55 -607 -314 -607 -287 0 -337 155 -100 313 115 76 140 102 140 146 0 108 -71
128 -184 51 -98 -66 -96 -67 -96 66 0 239 -171 237 -184 -2 l-6 -115 -77 52
c-92 63 -166 54 -185 -22 -16 -62 5 -87 153 -183 157 -101 180 -247 44 -285
-401 -111 -724 234 -503 538 66 92 72 133 25 184 -103 114 -33 330 133 410 61
29 106 70 140 128 109 185 318 260 522 188z m-1193 -396 c139 -91 236 -369
168 -483 -72 -123 -74 -314 -3 -454 65 -126 59 -135 -84 -135 -149 0 -150 1
-150 236 -1 230 -24 309 -93 319 -63 9 -107 -48 -107 -137 0 -74 -3 -77 -48
-60 -140 54 -180 -116 -42 -183 105 -51 130 -141 45 -163 -285 -77 -522 174
-365 387 57 77 61 114 19 169 -73 97 -5 260 125 300 25 7 65 49 89 92 83 147
306 203 446 112z m-2259 -526 c34 -13 350 -419 350 -450 0 -9 -104 -160 -232
-337 l-231 -320 -440 0 c-346 0 -436 5 -425 25 49 82 812 1073 833 1082 37 15
107 15 145 0z m825 -412 c23 -25 146 -189 272 -365 l231 -320 -592 -5 c-326
-3 -596 -2 -600 2 -10 11 469 675 510 708 49 39 133 30 179 -20z m1916 -278
c100 -44 280 -57 404 -29 l65 15 0 -201 0 -202 -510 0 -510 0 0 188 0 188 135
-1 c114 0 246 34 317 83 2 1 46 -17 99 -41z m-1681 -725 c128 -193 357 -370
672 -519 568 -269 646 -1074 168 -1743 -103 -146 -115 -149 -470 -150 -1350
-1 -2488 1034 -2612 2377 l-14 143 1092 0 1092 0 72 -108z m1862 67 c233 -144
311 -370 228 -659 -20 -71 -60 -211 -88 -310 -87 -303 -69 -570 56 -853 31
-69 -382 -341 -720 -475 -335 -132 -323 -138 -196 113 384 757 219 1468 -414
1781 -232 114 -414 244 -515 364 l-66 80 824 0 c798 0 826 -1 891 -41z m1120
-102 c-51 -552 -294 -1107 -661 -1510 l-106 -117 -45 147 c-64 209 -49 393 58
729 120 374 114 547 -26 780 l-69 114 431 0 432 0 -14 -143z"/>
<path d="M2093 4843 c-62 -69 -32 -131 80 -161 39 -10 60 -32 71 -76 32 -122
162 -143 188 -31 18 73 45 105 89 105 91 0 135 139 58 181 -43 23 -151 9 -194
-26 -17 -13 -50 -9 -105 13 -104 41 -146 40 -187 -5z"/>
</g>
</svg>
