<?xml version="1.0" standalone="no"?>
<!DOCTYPE svg PUBLIC "-//W3C//DTD SVG 20010904//EN"
 "http://www.w3.org/TR/2001/REC-SVG-20010904/DTD/svg10.dtd">
<svg version="1.0" xmlns="http://www.w3.org/2000/svg"
 width="300.000000pt" height="300.000000pt" viewBox="0 0 300.000000 300.000000"
 preserveAspectRatio="xMidYMid meet">
<metadata>
Created by potrace 1.10, written by Peter Selinger 2001-2011
</metadata>
<g transform="translate(0.000000,300.000000) scale(0.050000,-0.050000)"
fill="#000000" stroke="none">
<path d="M5229 5743 c-64 -40 -169 -154 -169 -185 0 -11 -668 -18 -1684 -18
l-1684 0 -436 -435 -436 -434 5 -828 c5 -764 8 -830 40 -851 101 -63 104 -39
115 780 l10 758 300 10 c318 11 343 17 440 120 l60 63 10 313 10 314 1605 5
1605 5 0 -1478 0 -1479 136 -294 c216 -466 282 -469 492 -27 l132 280 0 1568
c0 1656 1 1633 -96 1737 -107 115 -330 152 -455 76z m262 -152 c82 -34 129
-126 129 -250 l0 -81 -210 0 -210 0 0 91 c0 117 46 205 126 240 81 35 81 35
165 0z m-3854 -583 c-9 -281 -17 -288 -314 -288 l-212 0 249 250 c137 138 257
250 267 250 9 0 14 -95 10 -212z m3983 -8 l0 -80 -210 0 -210 0 0 80 0 80 210
0 210 0 0 -80z m-6 -1420 l5 -1150 -106 -220 -106 -220 -104 218 -103 218 0
1158 0 1157 205 -5 205 -6 4 -1150z"/>
<path d="M1981 5191 c-57 -68 21 -184 94 -139 71 45 46 168 -35 168 -19 0 -46
-13 -59 -29z"/>
<path d="M2915 5198 c-64 -37 -22 -158 55 -158 15 0 41 14 59 31 78 79 -17
184 -114 127z"/>
<path d="M3831 5189 c-42 -42 -39 -75 9 -119 81 -74 194 48 116 126 -33 33
-87 30 -125 -7z"/>
<path d="M4761 5191 c-57 -68 21 -184 94 -139 71 45 46 168 -35 168 -19 0 -46
-13 -59 -29z"/>
<path d="M4350 4556 c-60 -34 -69 -56 -70 -169 l0 -103 -172 -7 c-212 -9 -248
-39 -248 -209 l0 -108 -147 0 c-197 0 -248 -37 -257 -186 l-6 -104 -120 -5
c-283 -12 -290 -22 -290 -403 0 -263 4 -303 38 -345 l38 -47 796 -6 c846 -6
884 -2 925 88 16 34 23 282 23 790 l0 740 -49 49 c-55 55 -377 73 -461 25z
m330 -836 l0 -680 -120 0 -120 0 0 680 0 680 120 0 120 0 0 -680z m-410 -150
l0 -520 -115 -6 -115 -6 0 532 0 532 115 -6 115 -6 0 -520z m-410 -160 l0
-370 -120 0 -120 0 0 370 0 370 120 0 120 0 0 -370z m-410 -150 l0 -210 -115
-6 -115 -6 0 222 0 222 115 -6 115 -6 0 -210z"/>
<path d="M1465 4257 c-57 -57 -6 -146 77 -134 61 9 94 67 66 112 -27 43 -109
56 -143 22z"/>
<path d="M1704 4256 c-32 -32 -31 -86 3 -114 51 -42 1073 -20 1101 23 16 26
16 44 0 70 -29 45 -1060 65 -1104 21z"/>
<path d="M1374 3867 c-24 -23 -15 -101 13 -125 51 -42 1393 -20 1421 23 63
100 34 105 -722 110 -384 3 -705 -1 -712 -8z"/>
<path d="M2060 3480 l-210 -10 -7 -58 c-9 -83 18 -91 310 -92 282 0 317 12
304 104 -9 58 -97 70 -397 56z"/>
<path d="M1373 3467 c-75 -76 12 -147 180 -147 162 0 212 36 167 120 -22 40
-311 63 -347 27z"/>
<path d="M2573 3467 c-21 -22 -15 -97 11 -123 68 -68 178 15 133 101 -18 34
-116 49 -144 22z"/>
<path d="M1398 3110 c-63 -34 -92 -101 -109 -253 -18 -152 -59 -164 -193 -57
-183 145 -241 131 -481 -116 -206 -212 -207 -236 -21 -480 64 -83 20 -144
-102 -144 -233 0 -272 -56 -272 -388 0 -320 17 -346 241 -380 188 -28 200 -61
80 -213 -127 -160 -109 -240 101 -442 219 -211 275 -224 437 -96 152 120 185
108 213 -80 34 -224 60 -241 380 -241 332 0 388 39 388 272 0 122 61 166 144
102 249 -190 266 -189 505 46 l183 180 1191 0 1191 0 66 45 c136 93 149 129
157 434 7 300 -7 361 -84 361 -83 0 -93 -33 -93 -305 0 -410 120 -375 -1298
-375 l-1133 0 -83 107 c-113 144 -103 184 51 202 254 29 283 70 283 400 0 284
-37 348 -211 364 -230 22 -253 57 -132 202 145 172 132 243 -82 460 -212 214
-285 227 -460 81 -145 -120 -181 -97 -202 133 -16 175 -79 211 -368 210 -164
0 -251 -9 -287 -29z m491 -296 c17 -183 21 -188 163 -246 148 -60 124 -65 268
55 l123 103 142 -141 141 -142 -103 -123 c-120 -144 -115 -120 -55 -268 58
-142 63 -146 246 -163 l146 -14 0 -195 c0 -220 1 -219 -176 -220 -121 0 -154
-24 -212 -152 -65 -142 -67 -127 34 -252 47 -58 93 -118 102 -133 18 -29 -216
-283 -260 -283 -13 0 -73 40 -133 90 -127 105 -148 107 -295 34 l-110 -54 -20
-160 -20 -160 -185 -6 c-209 -6 -225 6 -225 172 -1 136 -18 164 -135 215 -147
65 -163 63 -290 -41 -136 -112 -120 -114 -269 34 -150 149 -148 135 -36 271
104 127 106 143 41 290 -51 117 -79 134 -215 135 -166 0 -178 16 -172 225 l6
185 154 20 c175 23 190 33 240 165 49 130 48 136 -54 260 -49 60 -90 120 -90
133 0 44 254 278 283 260 15 -9 75 -55 133 -102 125 -101 110 -99 252 -34 128
58 152 91 152 212 1 177 0 176 220 176 l195 0 14 -146z"/>
<path d="M1446 2372 c-467 -151 -648 -728 -355 -1132 315 -435 1005 -369 1244
117 140 288 8 867 -165 723 -41 -34 -38 -77 13 -181 262 -542 -466 -1039 -894
-610 -444 443 73 1157 638 880 133 -65 183 -53 183 43 0 136 -423 238 -664
160z"/>
<path d="M1530 2022 c-377 -175 -265 -722 148 -722 153 0 275 82 344 230 141
305 -187 633 -492 492z m248 -171 c115 -60 132 -249 29 -330 -130 -102 -327
-9 -327 153 0 164 150 254 298 177z"/>
<path d="M3390 2380 c-50 -55 -14 -140 60 -140 74 0 110 85 60 140 -20 22 -47
40 -60 40 -13 0 -40 -18 -60 -40z"/>
<path d="M3630 2380 c-30 -33 -32 -49 -14 -90 l23 -50 527 0 c544 0 574 4 574
83 0 91 -32 97 -568 97 -481 0 -508 -2 -542 -40z"/>
<path d="M3315 1998 c-40 -23 -46 -99 -11 -134 47 -47 1390 -33 1415 15 28 52
26 73 -10 110 -38 37 -1330 47 -1394 9z"/>
<path d="M3304 1596 c-83 -83 -9 -156 159 -156 179 0 250 65 160 147 -44 40
-281 47 -319 9z"/>
<path d="M3784 1596 c-13 -13 -24 -43 -24 -66 0 -80 35 -90 310 -90 275 0 310
10 310 90 0 23 -11 53 -24 66 -33 33 -539 33 -572 0z"/>
<path d="M4504 1596 c-33 -33 -30 -106 5 -135 39 -33 90 -20 123 30 52 78 -62
171 -128 105z"/>
</g>
</svg>
