<?xml version="1.0" standalone="no"?>
<!DOCTYPE svg PUBLIC "-//W3C//DTD SVG 20010904//EN"
 "http://www.w3.org/TR/2001/REC-SVG-20010904/DTD/svg10.dtd">
<svg version="1.0" xmlns="http://www.w3.org/2000/svg"
 width="300.000000pt" height="300.000000pt" viewBox="0 0 300.000000 300.000000"
 preserveAspectRatio="xMidYMid meet">
<metadata>
Created by potrace 1.10, written by Peter Selinger 2001-2011
</metadata>
<g transform="translate(0.000000,300.000000) scale(0.050000,-0.050000)"
fill="#000000" stroke="none">
<path d="M24 5976 c-49 -49 -19 -102 226 -405 l250 -309 0 -218 c0 -186 5
-223 37 -251 96 -87 143 -16 143 218 l0 189 510 0 510 0 0 -680 0 -680 -510 0
-510 0 0 356 c0 376 -6 404 -93 404 -85 0 -87 -27 -87 -1235 0 -1337 -20
-1221 210 -1229 l160 -6 5 -334 6 -334 -76 -13 c-196 -33 -329 -100 -375 -190
-52 -100 -43 -988 11 -1075 135 -222 697 -242 900 -33 l69 71 6 429 c6 426 6
429 50 429 24 0 63 6 87 12 42 11 43 5 50 -192 l7 -205 79 -68 c230 -198 783
-153 896 73 60 120 52 969 -10 1061 -81 120 -210 168 -464 173 l-221 4 0 96 0
96 481 5 481 6 45 -107 c24 -59 75 -137 112 -173 l68 -66 -57 -48 c-209 -176
-209 -578 0 -754 l57 -48 -67 -65 c-248 -240 -178 -657 139 -827 79 -42 100
-43 1034 -49 1005 -6 1018 -5 1017 82 -1 84 7 84 -998 94 -934 10 -961 11
-1016 52 -215 159 -193 473 40 586 133 64 2490 66 2554 2 51 -51 51 -129 0
-180 -39 -39 -67 -40 -1186 -40 -1213 0 -1194 2 -1194 -93 0 -85 28 -87 1216
-87 1256 0 1204 5 1204 -123 0 -89 -55 -117 -233 -117 -168 0 -207 -17 -207
-90 0 -74 39 -90 216 -90 321 0 491 207 365 443 -38 72 -38 74 0 149 49 97 49
179 0 276 -38 75 -38 77 0 149 50 93 49 184 -1 283 l-40 79 40 65 c50 83 51
186 2 282 -37 73 -37 75 0 148 48 95 48 178 -1 274 -39 76 -39 78 0 154 71
138 34 296 -88 383 -59 42 -89 46 -493 55 l-430 10 -5 1244 -5 1244 260 326
c143 179 260 337 260 350 0 88 30 86 -1628 86 l-1565 0 -50 -55 c-28 -30 -130
-154 -227 -275 -97 -121 -183 -223 -191 -226 -9 -3 -106 105 -215 242 -110
136 -215 262 -234 281 -42 42 -1284 51 -1326 9z m1356 -319 c72 -89 151 -188
176 -220 l47 -57 -488 0 -488 0 -107 135 c-59 74 -138 173 -176 220 l-69 85
488 0 487 0 130 -163z m3626 -56 l-176 -219 -1417 -1 c-779 0 -1413 7 -1410
16 4 9 79 108 167 219 l160 202 1426 1 1426 1 -176 -219z m-231 -1086 l6 -675
-321 0 -320 0 0 71 c0 141 -14 149 -271 149 l-229 0 0 226 c0 287 15 274 -312
274 -319 0 -305 12 -312 -271 l-6 -219 -219 -6 c-250 -6 -271 -17 -271 -136
l0 -88 -320 0 -320 0 0 680 0 680 1445 -5 1445 -5 5 -675z m-1315 -341 c0
-276 -4 -272 270 -279 l220 -5 6 -135 6 -135 -220 0 c-286 0 -282 4 -282 -282
l0 -220 -135 6 -135 6 -6 219 c-7 279 0 271 -266 271 l-218 0 0 139 0 140 235
5 235 6 6 235 5 235 140 0 139 0 0 -206z m-1760 -1106 l0 -593 -45 15 c-223
70 -585 19 -704 -101 -61 -60 -82 -69 -170 -69 l-101 0 0 670 0 670 510 0 510
0 0 -592z m820 513 c0 -126 30 -141 281 -141 l219 0 0 -229 c0 -280 -10 -271
304 -271 317 0 316 -1 316 281 l0 219 219 0 c246 0 281 19 281 154 l0 66 320
0 320 0 0 -460 0 -460 -747 0 c-957 0 -1056 -33 -1161 -385 -10 -32 -51 -35
-501 -35 l-491 0 0 670 0 670 320 0 320 0 0 -79z m3263 -1054 c46 -41 48 -122
4 -170 -31 -35 -94 -37 -1171 -37 -1188 0 -1216 -2 -1216 -87 0 -95 -19 -93
1194 -93 1269 0 1226 5 1226 -129 0 -137 33 -133 -1351 -127 l-1202 6 -80 53
c-204 135 -198 430 11 572 l68 45 1240 0 c1127 0 1244 -3 1277 -33z m-4263
-189 c56 -12 125 -42 154 -66 l52 -45 -45 -42 c-118 -110 -483 -111 -601 -1
l-44 41 40 40 c78 78 272 110 444 73z m-265 -402 c119 -21 272 -8 420 35 72
21 62 -96 -15 -184 -59 -67 -60 -73 -60 -285 0 -208 -2 -218 -45 -229 -91 -25
-168 -13 -207 30 -43 48 -219 137 -273 137 -32 0 -35 26 -35 272 l0 273 45
-14 c25 -7 101 -23 170 -35z m1100 -216 c109 -48 108 -94 -5 -150 -236 -118
-735 22 -506 142 144 76 350 79 511 8z m3378 -21 c68 -26 86 -52 87 -123 0
-118 22 -116 -1230 -116 -1209 0 -1190 1 -1190 -93 0 -85 28 -87 1212 -87
1244 0 1208 3 1208 -117 0 -129 64 -123 -1310 -123 l-1244 0 -68 45 c-259 175
-192 547 112 621 86 21 2367 14 2423 -7z m-3751 -343 c130 -23 249 -12 413 36
l45 13 0 -310 c0 -269 -4 -313 -35 -339 -100 -86 -393 -105 -539 -34 l-86 42
0 320 c0 290 3 319 33 308 19 -8 94 -24 169 -36z m-916 -97 c108 -27 180 -81
164 -122 -55 -143 -620 -137 -646 7 -18 97 276 167 482 115z m-166 -404 c103
0 204 13 255 32 l86 32 -6 -324 -5 -323 -67 -39 c-86 -50 -326 -68 -435 -33
-147 47 -148 49 -148 402 l0 316 75 -32 c50 -21 133 -32 245 -31z"/>
</g>
</svg>
