<?xml version="1.0" standalone="no"?>
<!DOCTYPE svg PUBLIC "-//W3C//DTD SVG 20010904//EN"
 "http://www.w3.org/TR/2001/REC-SVG-20010904/DTD/svg10.dtd">
<svg version="1.0" xmlns="http://www.w3.org/2000/svg"
 width="300.000000pt" height="300.000000pt" viewBox="0 0 300.000000 300.000000"
 preserveAspectRatio="xMidYMid meet">
<metadata>
Created by potrace 1.10, written by Peter Selinger 2001-2011
</metadata>
<g transform="translate(0.000000,300.000000) scale(0.100000,-0.100000)"
fill="#000000" stroke="none">
<path d="M1319 2831 l-41 -88 -62 -25 -63 -25 -74 28 c-112 42 -113 42 -213
-61 -87 -89 -88 -90 -81 -130 l7 -40 -245 0 c-266 1 -282 -2 -345 -55 -18 -15
-43 -46 -55 -69 l-22 -41 -3 -799 c-3 -911 -7 -863 78 -939 26 -24 66 -49 88
-55 28 -8 165 -12 466 -12 257 0 426 -4 426 -9 0 -9 -24 -129 -35 -178 -5 -22
-10 -23 -98 -23 -132 -1 -194 -33 -232 -122 -18 -45 -19 -80 -3 -96 17 -17
1359 -17 1376 0 16 16 15 51 -3 96 -38 89 -100 121 -232 122 -88 0 -93 1 -98
23 -11 49 -35 169 -35 178 0 5 170 9 429 9 483 0 485 0 558 72 76 75 73 36 73
912 0 492 -4 794 -10 817 -15 52 -49 99 -98 134 l-44 30 -246 3 c-222 3 -249
5 -267 21 -31 28 -61 41 -95 41 -89 0 -143 -87 -110 -175 8 -22 5 -35 -23 -83
l-33 -57 -133 -3 c-119 -2 -135 -1 -160 18 -16 11 -39 24 -52 29 -18 7 4 10
79 10 88 1 105 4 122 21 11 11 20 25 20 30 0 6 -9 19 -20 30 -18 18 -33 20
-140 20 l-120 0 0 30 0 30 149 0 150 0 48 82 c45 76 52 83 86 89 78 13 124 98
90 166 -25 51 -65 78 -113 77 -83 -3 -136 -81 -111 -164 11 -38 10 -44 -21
-100 l-33 -60 -122 0 -123 0 0 80 c0 72 2 80 19 80 10 0 26 -11 35 -25 42 -63
138 -72 188 -16 57 64 41 158 -35 195 -52 25 -101 15 -143 -30 -46 -48 -64
-45 -64 12 0 78 -8 84 -106 84 l-84 0 -41 -89z m131 -145 l0 -145 -52 -10
c-263 -55 -443 -317 -398 -580 34 -200 197 -373 391 -413 l59 -12 0 -143 c0
-123 -2 -143 -16 -143 -9 0 -28 29 -49 75 -34 74 -36 76 -97 104 -131 58 -127
58 -216 24 l-80 -30 -56 56 -56 56 31 81 31 81 -39 94 -38 94 -83 40 -82 40 0
78 0 78 79 36 80 35 41 97 41 97 -30 82 -30 82 54 57 53 56 74 -26 c40 -15 82
-27 93 -27 11 0 59 16 106 36 l87 36 37 79 c55 118 65 108 65 -65z m280 60 c0
-25 -15 -36 -37 -29 -7 3 -13 16 -13 29 0 19 5 24 25 24 20 0 25 -5 25 -24z
m255 -6 c0 -16 -6 -26 -18 -28 -19 -4 -32 20 -23 44 9 25 41 13 41 -16z m155
-295 c17 -20 5 -45 -20 -45 -11 0 -23 7 -26 15 -6 15 11 45 26 45 4 0 13 -7
20 -15z m-692 -77 l-3 -71 -40 -14 c-133 -44 -207 -208 -155 -345 25 -67 95
-137 159 -158 l41 -13 0 -74 0 -73 -27 6 c-156 37 -278 149 -319 292 -24 80
-15 209 19 284 26 58 88 133 140 170 39 28 136 67 165 68 22 0 23 -3 20 -72z
m-613 23 c3 -6 -6 -39 -20 -74 l-26 -64 -85 -38 c-60 -27 -86 -44 -90 -59 -2
-11 -3 -75 -2 -141 l3 -120 89 -45 c88 -45 89 -45 113 -105 l24 -60 -31 -81
c-16 -44 -30 -86 -30 -94 0 -16 179 -200 194 -200 6 0 47 14 93 31 l84 32 62
-24 62 -25 45 -89 45 -90 75 -3 c67 -3 77 -1 93 19 10 13 17 38 17 65 0 37 3
44 19 44 10 0 35 -16 54 -35 30 -30 42 -35 80 -35 110 0 165 131 87 209 -52
51 -121 49 -174 -5 -53 -55 -66 -47 -66 41 l0 75 123 0 122 0 33 -55 c33 -55
33 -57 21 -105 -11 -43 -11 -54 4 -85 34 -70 115 -94 178 -52 91 61 59 205
-48 223 -37 6 -43 12 -78 73 -61 107 -48 101 -212 101 l-143 0 0 30 0 30 123
0 c111 0 126 2 142 20 15 17 16 24 7 45 -11 24 -14 25 -124 25 l-112 0 47 30
c47 30 49 30 185 30 l137 0 33 -57 c28 -48 32 -61 23 -80 -20 -43 -13 -99 14
-132 53 -62 137 -62 190 0 62 74 6 199 -89 199 -20 0 -32 13 -66 75 -23 41
-50 80 -60 85 -10 6 -71 10 -134 10 -64 0 -116 2 -116 4 0 3 4 16 10 30 l10
26 190 0 190 0 16 -26 c49 -73 162 -70 208 6 53 92 -36 211 -135 181 -21 -6
-49 -25 -63 -41 l-25 -30 -195 0 c-163 0 -196 2 -196 14 0 8 -3 21 -6 30 -5
14 9 16 117 16 68 0 129 4 135 8 6 4 29 39 52 78 36 62 46 73 76 78 41 8 84
40 96 72 l10 24 217 0 c245 0 269 -6 308 -71 19 -33 20 -55 23 -736 l3 -703
-1291 0 -1291 0 3 703 c3 685 3 703 23 737 39 66 59 70 342 70 146 0 254 -4
258 -9z m761 -213 c46 -32 76 -90 76 -147 0 -59 -21 -102 -69 -138 -31 -24
-46 -28 -103 -28 -57 0 -72 4 -103 28 -90 68 -94 193 -9 272 53 50 146 55 208
13z m698 -135 c4 -9 0 -23 -9 -32 -13 -14 -17 -14 -31 1 -9 9 -14 24 -11 32 8
21 43 20 51 -1z m-154 -388 c17 -20 5 -45 -20 -45 -11 0 -23 7 -26 15 -6 15
11 45 26 45 4 0 13 -7 20 -15z m-415 -335 c0 -29 -32 -41 -41 -16 -9 24 4 48
23 44 12 -2 18 -12 18 -28z m263 6 c2 -10 -2 -22 -9 -26 -20 -13 -39 0 -39 27
0 20 4 24 22 21 13 -2 24 -11 26 -22z m795 -576 c-2 -47 -22 -81 -67 -114 -27
-21 -33 -21 -1193 -24 -776 -1 -1177 1 -1203 8 -49 13 -96 66 -105 119 -4 22
-4 45 0 51 4 7 408 9 1288 8 l1282 -3 -2 -45z m-1058 -252 c11 -50 35 -170 35
-179 0 -5 -105 -9 -260 -9 -155 0 -260 4 -260 9 0 9 24 129 35 179 5 22 5 22
225 22 220 0 220 0 225 -22z m335 -301 l35 -22 -297 -3 c-164 -1 -432 -1 -595
0 l-298 3 35 22 35 23 525 0 525 0 35 -23z"/>
<path d="M305 2315 l-25 -24 0 -646 c0 -629 0 -645 20 -665 11 -11 30 -22 42
-25 13 -3 544 -4 1181 -3 l1159 3 19 24 c18 22 19 48 19 668 l0 644 -25 24
c-24 25 -27 25 -195 25 -99 0 -179 -4 -191 -10 -21 -12 -25 -50 -7 -68 8 -8
60 -12 170 -12 l158 0 0 -600 0 -600 -1130 0 -1130 0 0 600 0 600 158 0 c110
0 162 4 170 12 18 18 14 56 -7 68 -12 6 -92 10 -191 10 -168 0 -171 0 -195
-25z"/>
<path d="M382 738 c-16 -16 -15 -53 2 -67 9 -8 64 -11 172 -9 l159 3 9 27 c18
52 2 58 -173 58 -109 0 -161 -4 -169 -12z"/>
<path d="M782 738 c-15 -15 -15 -51 0 -66 20 -20 83 -15 103 8 15 17 16 24 7
45 -10 21 -18 25 -55 25 -24 0 -48 -5 -55 -12z"/>
</g>
</svg>
